<?xml version="1.0" encoding="UTF-8"?>
<!DOCTYPE svg PUBLIC "-//W3C//DTD SVG 1.1//EN" "http://www.w3.org/Graphics/SVG/1.1/DTD/svg11.dtd">
<svg xmlns="http://www.w3.org/2000/svg" version="1.1" width="598px" height="446px" style="shape-rendering:geometricPrecision; text-rendering:geometricPrecision; image-rendering:optimizeQuality; fill-rule:evenodd; clip-rule:evenodd" xmlns:xlink="http://www.w3.org/1999/xlink">
<g><path style="opacity:0.96" fill="#12487a" d="M 369.5,117.5 C 368.58,118.067 368.246,117.401 368.5,115.5C 368.5,114.833 368.167,114.5 367.5,114.5C 367.158,113.662 366.492,113.328 365.5,113.5C 365.158,112.662 364.492,112.328 363.5,112.5C 363.167,112.5 362.833,112.5 362.5,112.5C 362.5,111.833 362.5,111.167 362.5,110.5C 366.243,110.541 366.41,109.874 363,108.5C 362.667,108.833 362.333,109.167 362,109.5C 360.752,106.716 358.919,106.05 356.5,107.5C 356.167,107.5 355.833,107.5 355.5,107.5C 355.158,106.662 354.492,106.328 353.5,106.5C 353.5,105.833 353.167,105.5 352.5,105.5C 352.167,105.5 351.833,105.5 351.5,105.5C 351.5,104.833 351.167,104.5 350.5,104.5C 350.5,103.833 350.167,103.5 349.5,103.5C 349.167,103.5 348.833,103.5 348.5,103.5C 348.167,102.5 347.5,101.833 346.5,101.5C 346.5,100.5 346.5,99.5 346.5,98.5C 345.167,98.5 343.833,98.5 342.5,98.5C 341.833,98.5 341.167,98.5 340.5,98.5C 340.167,98.5 339.833,98.5 339.5,98.5C 339.5,97.1667 338.833,96.5 337.5,96.5C 335.213,95.6448 332.88,95.4782 330.5,96C 329.588,94.3745 330.255,93.5412 332.5,93.5C 333.849,94.6441 334.183,94.6441 333.5,93.5C 332.791,92.596 331.791,92.2627 330.5,92.5C 330.5,91.8333 330.167,91.5 329.5,91.5C 326.672,93.4007 325.006,92.734 324.5,89.5C 325.833,89.1667 325.833,88.8333 324.5,88.5C 324.5,87.8333 324.167,87.5 323.5,87.5C 323.444,84.483 323.11,84.1497 322.5,86.5C 321.833,86.5 321.167,86.5 320.5,86.5C 320.121,85.1938 319.788,83.8605 319.5,82.5C 317.568,83.1455 316.401,84.4788 316,86.5C 315.52,84.867 314.687,83.5336 313.5,82.5C 313.189,81.5222 312.522,80.8555 311.5,80.5C 310.5,140.83 310.167,201.163 310.5,261.5C 309.71,262.609 309.21,263.942 309,265.5C 308.667,240.5 308.333,215.5 308,190.5C 307.333,216.167 307.333,241.833 308,267.5C 308.654,266.304 309.154,266.304 309.5,267.5C 307.314,269.788 305.314,269.454 303.5,266.5C 303.44,265.957 303.107,265.624 302.5,265.5C 301.227,266.257 301.227,266.923 302.5,267.5C 302.019,269.638 300.852,271.305 299,272.5C 298.283,271.956 297.783,271.289 297.5,270.5C 297.833,270.5 298.167,270.5 298.5,270.5C 299.338,270.158 299.672,269.492 299.5,268.5C 300.833,268.167 300.833,267.833 299.5,267.5C 297.071,267.585 295.071,268.585 293.5,270.5C 295.71,272.209 295.877,274.209 294,276.5C 293.283,275.956 292.783,275.289 292.5,274.5C 292.167,274.5 291.833,274.5 291.5,274.5C 290.833,274.5 290.5,274.833 290.5,275.5C 290.167,275.5 289.833,275.5 289.5,275.5C 287.292,274.977 285.792,273.644 285,271.5C 284.506,273.134 284.34,274.801 284.5,276.5C 283.5,276.5 282.5,276.5 281.5,276.5C 281.216,278.415 281.549,280.081 282.5,281.5C 282.5,281.833 282.5,282.167 282.5,282.5C 281.833,282.5 281.5,282.833 281.5,283.5C 280.833,283.5 280.5,283.833 280.5,284.5C 279.833,284.5 279.5,284.833 279.5,285.5C 278.167,285.833 278.167,286.167 279.5,286.5C 279.591,288.698 278.925,289.031 277.5,287.5C 277.401,284.763 277.735,282.096 278.5,279.5C 280.475,277.638 280.808,275.638 279.5,273.5C 280.806,272.533 281.473,271.199 281.5,269.5C 280.022,269.762 278.689,269.429 277.5,268.5C 279.705,267.626 281.538,268.292 283,270.5C 284.12,268.586 284.286,266.752 283.5,265C 283.905,264.055 284.572,263.388 285.5,263C 283.926,261.174 283.093,259.007 283,256.5C 282.878,258.437 282.045,259.77 280.5,260.5C 280.715,258.821 280.048,257.821 278.5,257.5C 277.852,256.021 277.519,254.521 277.5,253C 279.291,252.585 280.624,251.585 281.5,250C 282.744,249.544 283.577,250.044 284,251.5C 285.016,250.366 285.683,250.699 286,252.5C 286.629,249.689 287.129,246.856 287.5,244C 287.239,239.247 287.072,234.414 287,229.5C 286.086,228.346 285.253,228.513 284.5,230C 285.34,231.666 284.84,231.833 283,230.5C 281.092,233.332 280.259,232.999 280.5,229.5C 280.657,228.127 280.49,226.793 280,225.5C 279.617,226.056 279.117,226.389 278.5,226.5C 278.26,224.408 279.094,222.408 281,220.5C 281.249,221.624 281.749,222.624 282.5,223.5C 283.711,222.726 283.711,221.893 282.5,221C 285.124,218.641 285.791,218.975 284.5,222C 286.616,225.491 287.95,225.158 288.5,221C 287.863,216.485 287.196,211.985 286.5,207.5C 286.457,178.535 286.791,149.202 287.5,119.5C 286.833,109.5 286.167,99.5 285.5,89.5C 286.491,86.1556 287.491,82.8223 288.5,79.5C 288.081,78.3279 287.415,77.3279 286.5,76.5C 287.355,71.008 288.022,65.3413 288.5,59.5C 288.579,56.0454 288.079,52.7121 287,49.5C 287.257,53.2591 287.423,56.9258 287.5,60.5C 286.859,65.0379 285.692,69.0379 284,72.5C 282.667,71.1667 281.333,71.1667 280,72.5C 279.517,71.552 279.351,70.552 279.5,69.5C 280.598,68.3991 280.765,67.0657 280,65.5C 266.586,74.4362 253.086,83.1029 239.5,91.5C 239.5,92.8333 239.5,94.1667 239.5,95.5C 238.883,95.3893 238.383,95.056 238,94.5C 236.964,97.7527 236.297,101.086 236,104.5C 235.667,102.833 235.333,101.167 235,99.5C 234.333,101.833 234.333,104.167 235,106.5C 235.333,106.167 235.667,105.833 236,105.5C 236.49,106.793 236.657,108.127 236.5,109.5C 237.5,109.5 238.5,109.5 239.5,109.5C 239.5,110.5 239.5,111.5 239.5,112.5C 238.732,113.263 238.232,114.263 238,115.5C 237.667,114.833 237.333,114.167 237,113.5C 235.845,118.384 236.678,122.717 239.5,126.5C 239.328,127.492 239.662,128.158 240.5,128.5C 239.953,133.063 238.786,133.396 237,129.5C 236.667,130.833 236.333,132.167 236,133.5C 235.667,132.833 235.333,132.167 235,131.5C 234.333,133.833 234.333,136.167 235,138.5C 235.333,137.833 235.667,137.167 236,136.5C 236.498,138.544 237.665,139.878 239.5,140.5C 239.5,141.5 239.5,142.5 239.5,143.5C 237.416,145.275 236.249,147.608 236,150.5C 235.103,146.586 234.603,146.752 234.5,151C 234.603,155.248 235.103,155.414 236,151.5C 236.249,154.392 237.416,156.725 239.5,158.5C 239.5,158.833 239.5,159.167 239.5,159.5C 239.047,160.458 238.381,161.292 237.5,162C 237.833,162.333 238.167,162.667 238.5,163C 235.928,163.432 234.594,164.932 234.5,167.5C 233.167,167.833 233.167,168.167 234.5,168.5C 234.5,169.167 234.833,169.5 235.5,169.5C 235.5,170.167 235.833,170.5 236.5,170.5C 236.5,171.167 236.833,171.5 237.5,171.5C 237.833,171.5 238.167,171.5 238.5,171.5C 238.5,172.167 238.833,172.5 239.5,172.5C 239.5,173.167 239.833,173.5 240.5,173.5C 240.842,174.338 241.508,174.672 242.5,174.5C 242.5,175.167 242.833,175.5 243.5,175.5C 244.167,175.5 244.5,175.833 244.5,176.5C 244.5,177.167 244.833,177.5 245.5,177.5C 245.794,203.617 246.127,229.784 246.5,256C 245.833,266.667 245.167,277.333 244.5,288C 245.078,289.811 245.578,291.645 246,293.5C 247.812,290.179 250.645,288.845 254.5,289.5C 251.909,290.991 250.909,293.325 251.5,296.5C 251.5,296.833 251.5,297.167 251.5,297.5C 247.604,298.006 243.604,298.006 239.5,297.5C 238.833,297.5 238.167,297.5 237.5,297.5C 234.292,295.469 230.959,295.135 227.5,296.5C 226.732,300.139 226.066,299.806 225.5,295.5C 222.713,294.523 219.713,294.19 216.5,294.5C 215.791,293.596 214.791,293.263 213.5,293.5C 212.505,247.239 212.172,200.905 212.5,154.5C 212.833,153.833 213.167,153.167 213.5,152.5C 219.993,155.969 225.993,160.303 231.5,165.5C 232.5,123.505 232.833,81.5053 232.5,39.5C 233.552,39.6495 234.552,39.4828 235.5,39C 251.514,28.3282 267.514,17.6615 283.5,7C 284.793,6.50999 286.127,6.34332 287.5,6.5C 287.5,5.5 287.5,4.5 287.5,3.5C 289.288,3.21478 290.955,3.54811 292.5,4.5C 318.469,21.3833 344.802,37.7167 371.5,53.5C 372.5,74.1559 372.833,94.8226 372.5,115.5C 370.821,115.285 369.821,115.952 369.5,117.5 Z M 278.5,17.5 C 279.497,17.4701 280.164,17.9701 280.5,19C 279.899,20.605 278.899,21.9384 277.5,23C 265,31.5 252.5,40 240,48.5C 239.202,46.7412 239.369,45.0745 240.5,43.5C 253.635,35.4109 266.302,26.7442 278.5,17.5 Z M 278.5,33.5 C 280.71,34.4551 281.043,35.9551 279.5,38C 266.075,46.4615 252.908,55.2949 240,64.5C 239.202,62.7412 239.369,61.0745 240.5,59.5C 253.476,51.1742 266.143,42.5075 278.5,33.5 Z M 279.5,49.5 C 280.782,50.7082 280.782,52.0416 279.5,53.5C 266.247,62.3764 253.08,71.3764 240,80.5C 239.202,78.7412 239.369,77.0745 240.5,75.5C 253.541,66.7742 266.541,58.1075 279.5,49.5 Z M 279.5,69.5 C 266.094,78.8176 252.76,87.4843 239.5,95.5C 239.5,94.1667 239.5,92.8333 239.5,91.5C 253.086,83.1029 266.586,74.4362 280,65.5C 280.765,67.0657 280.598,68.3991 279.5,69.5 Z M 239.5,112.5 C 239.5,111.5 239.5,110.5 239.5,109.5C 252.113,99.0917 265.613,89.7584 280,81.5C 280.68,83.9757 279.847,85.809 277.5,87C 264.673,95.3384 252.007,103.838 239.5,112.5 Z M 240.5,128.5 C 239.662,128.158 239.328,127.492 239.5,126.5C 239.414,125.504 239.748,124.671 240.5,124C 253.919,115.206 267.085,106.04 280,96.5C 280.798,98.2588 280.631,99.9255 279.5,101.5C 266.459,110.558 253.459,119.558 240.5,128.5 Z M 337.5,96.5 C 338.833,96.5 339.5,97.1667 339.5,98.5C 338.5,98.1667 337.833,97.5 337.5,96.5 Z M 346.5,101.5 C 347.5,101.833 348.167,102.5 348.5,103.5C 347.167,103.5 346.5,102.833 346.5,101.5 Z M 362.5,110.5 C 362.5,111.167 362.5,111.833 362.5,112.5C 360.067,111.452 360.067,110.786 362.5,110.5 Z M 239.5,143.5 C 239.5,142.5 239.5,141.5 239.5,140.5C 253.27,131.534 266.77,122.201 280,112.5C 280.896,115.025 280.396,117.192 278.5,119C 265.434,127.192 252.434,135.359 239.5,143.5 Z M 239.5,159.5 C 239.5,159.167 239.5,158.833 239.5,158.5C 240.706,155.702 242.706,153.535 245.5,152C 257.085,144.624 268.585,137.124 280,129.5C 280.825,131.701 280.325,133.534 278.5,135C 265.444,143.188 252.444,151.355 239.5,159.5 Z M 279.5,145.5 C 280.124,145.917 280.457,146.584 280.5,147.5C 279.455,149.205 278.122,150.705 276.5,152C 267.228,157.608 258.228,163.608 249.5,170C 244.804,169.929 244.47,168.596 248.5,166C 259.242,159.64 269.575,152.807 279.5,145.5 Z M 303.5,266.5 C 302.833,266.5 302.5,266.833 302.5,267.5C 301.227,266.923 301.227,266.257 302.5,265.5C 303.107,265.624 303.44,265.957 303.5,266.5 Z M 278.5,257.5 C 280.048,257.821 280.715,258.821 280.5,260.5C 271.232,266.81 261.899,273.144 252.5,279.5C 251.246,277.741 251.579,276.241 253.5,275C 262.23,269.643 270.564,263.81 278.5,257.5 Z M 278.5,241.5 C 280.71,242.455 281.043,243.955 279.5,246C 270.055,251.784 260.888,257.95 252,264.5C 251.08,261.692 251.913,259.525 254.5,258C 263.088,253.218 271.088,247.718 278.5,241.5 Z M 280.5,229.5 C 270.897,235.59 261.397,241.923 252,248.5C 251.08,245.692 251.913,243.525 254.5,242C 262.735,237.058 270.735,231.892 278.5,226.5C 279.117,226.389 279.617,226.056 280,225.5C 280.49,226.793 280.657,228.127 280.5,229.5 Z M 278.5,209.5 C 280.344,210.204 280.844,211.537 280,213.5C 270.667,219.833 261.333,226.167 252,232.5C 251.506,230.866 251.34,229.199 251.5,227.5C 261.083,222.229 270.083,216.229 278.5,209.5 Z M 278.5,193.5 C 280.71,194.455 281.043,195.955 279.5,198C 270.333,204.167 261.167,210.333 252,216.5C 251.202,214.741 251.369,213.074 252.5,211.5C 261.435,205.767 270.101,199.767 278.5,193.5 Z M 278.5,177.5 C 280.71,178.455 281.043,179.955 279.5,182C 269.815,188.323 260.148,194.323 250.5,200C 251.212,197.119 252.878,194.952 255.5,193.5C 263.723,188.895 271.389,183.562 278.5,177.5 Z M 278.5,161.5 C 279.586,161.62 280.253,162.287 280.5,163.5C 279.455,165.205 278.122,166.705 276.5,168C 268.228,172.941 260.228,178.274 252.5,184C 251.833,184.667 251.167,184.667 250.5,184C 251.09,182.491 251.756,180.991 252.5,179.5C 261.581,173.971 270.248,167.971 278.5,161.5 Z M 227.5,296.5 C 230.959,295.135 234.292,295.469 237.5,297.5C 234.061,297.747 230.728,297.414 227.5,296.5 Z"/></g>
<g><path style="opacity:0.979" fill="#12487a" d="M 313.5,82.5 C 314.687,83.5336 315.52,84.867 316,86.5C 316.401,84.4788 317.568,83.1455 319.5,82.5C 319.788,83.8605 320.121,85.1938 320.5,86.5C 321.167,87.8333 321.833,87.8333 322.5,86.5C 323.11,84.1497 323.444,84.483 323.5,87.5C 324.167,87.5 324.5,87.8333 324.5,88.5C 324.5,88.8333 324.5,89.1667 324.5,89.5C 325.006,92.734 326.672,93.4007 329.5,91.5C 330.167,91.5 330.5,91.8333 330.5,92.5C 331.791,92.2627 332.791,92.596 333.5,93.5C 333.167,93.5 332.833,93.5 332.5,93.5C 330.255,93.5412 329.588,94.3745 330.5,96C 332.88,95.4782 335.213,95.6448 337.5,96.5C 337.833,97.5 338.5,98.1667 339.5,98.5C 339.833,98.5 340.167,98.5 340.5,98.5C 341.167,99.8333 341.833,99.8333 342.5,98.5C 343.833,98.5 345.167,98.5 346.5,98.5C 346.5,99.5 346.5,100.5 346.5,101.5C 346.5,102.833 347.167,103.5 348.5,103.5C 348.833,103.5 349.167,103.5 349.5,103.5C 350.167,103.5 350.5,103.833 350.5,104.5C 351.167,104.5 351.5,104.833 351.5,105.5C 351.833,105.5 352.167,105.5 352.5,105.5C 353.167,105.5 353.5,105.833 353.5,106.5C 354.492,106.328 355.158,106.662 355.5,107.5C 355.833,108.833 356.167,108.833 356.5,107.5C 358.919,106.05 360.752,106.716 362,109.5C 362.333,109.167 362.667,108.833 363,108.5C 366.41,109.874 366.243,110.541 362.5,110.5C 360.067,110.786 360.067,111.452 362.5,112.5C 362.833,112.5 363.167,112.5 363.5,112.5C 363.842,113.338 364.508,113.672 365.5,113.5C 366.492,113.328 367.158,113.662 367.5,114.5C 366.443,115.206 366.776,115.539 368.5,115.5C 368.246,117.401 368.58,118.067 369.5,117.5C 370.978,117.238 372.311,117.571 373.5,118.5C 374.274,122.779 374.774,127.113 375,131.5C 375.383,130.944 375.883,130.611 376.5,130.5C 376.577,131.75 377.244,132.583 378.5,133C 377.027,133.71 376.36,134.876 376.5,136.5C 377.5,136.5 378.5,136.5 379.5,136.5C 378.22,137.931 376.553,138.598 374.5,138.5C 374.5,139.833 374.5,141.167 374.5,142.5C 373.402,143.601 373.235,144.934 374,146.5C 375.617,148.763 377.45,150.763 379.5,152.5C 379.158,153.338 378.492,153.672 377.5,153.5C 374.507,152.285 372.841,153.452 372.5,157C 374.228,160.773 374.561,164.607 373.5,168.5C 374.325,169.386 375.325,169.719 376.5,169.5C 377.167,165.5 377.833,165.5 378.5,169.5C 377.292,170.234 375.959,170.567 374.5,170.5C 374.5,171.833 374.5,173.167 374.5,174.5C 374.622,177.519 374.289,180.686 373.5,184C 374.381,184.708 375.047,185.542 375.5,186.5C 374.212,188.035 374.212,189.701 375.5,191.5C 379.649,188.257 383.983,185.257 388.5,182.5C 389.631,180.926 389.798,179.259 389,177.5C 388.617,178.056 388.117,178.389 387.5,178.5C 385.016,176.741 385.516,175.741 389,175.5C 390.326,175.755 391.326,176.422 392,177.5C 392.317,175.699 392.984,175.366 394,176.5C 395.41,182.379 395.91,188.379 395.5,194.5C 395.5,195.167 395.833,195.5 396.5,195.5C 395.612,198.054 395.279,200.721 395.5,203.5C 395.5,204.5 395.5,205.5 395.5,206.5C 395.5,208.833 395.5,211.167 395.5,213.5C 395.5,214.167 395.5,214.833 395.5,215.5C 393.803,213.695 392.97,211.361 393,208.5C 392.692,209.308 392.192,209.975 391.5,210.5C 389.922,209.36 388.256,208.86 386.5,209C 387.252,209.671 387.586,210.504 387.5,211.5C 383.375,214.309 379.041,216.643 374.5,218.5C 374.5,219.5 374.5,220.5 374.5,221.5C 372.79,225.568 371.623,225.235 371,220.5C 370.333,224.833 370.333,229.167 371,233.5C 371.414,233.043 371.914,232.709 372.5,232.5C 373.176,233.602 373.842,234.602 374.5,235.5C 374.5,236.833 374.5,238.167 374.5,239.5C 373.352,242.88 373.352,246.547 374.5,250.5C 374.5,252.167 374.5,253.833 374.5,255.5C 373.429,259.095 373.429,262.761 374.5,266.5C 374.34,268.199 374.506,269.866 375,271.5C 375.383,270.944 375.883,270.611 376.5,270.5C 375.13,273.312 374.13,276.312 373.5,279.5C 374.193,280.518 374.859,281.518 375.5,282.5C 374.387,283.946 374.22,285.613 375,287.5C 377.943,285.948 380.777,284.281 383.5,282.5C 385.671,283.245 388.005,283.412 390.5,283C 389.044,283.423 388.544,284.256 389,285.5C 389.915,286.328 390.581,287.328 391,288.5C 392.073,287.72 393.24,287.887 394.5,289C 393.695,290.113 393.028,291.279 392.5,292.5C 390.702,293.463 389.368,292.796 388.5,290.5C 385.541,293.175 382.208,294.842 378.5,295.5C 374.511,295.116 370.845,295.783 367.5,297.5C 366.833,297.5 366.167,297.5 365.5,297.5C 362.123,297.068 359.123,297.735 356.5,299.5C 354.849,300.97 353.015,302.303 351,303.5C 350.316,304.784 350.483,305.951 351.5,307C 350.167,309 348.833,309 347.5,307C 347.888,305.399 348.555,303.565 349.5,301.5C 350.609,300.71 351.942,300.21 353.5,300C 350.001,299.841 346.667,299.675 343.5,299.5C 344.326,295.335 342.659,294.002 338.5,295.5C 338.5,294.833 338.167,294.5 337.5,294.5C 336.426,293.115 335.093,291.949 333.5,291C 334.337,289.989 334.67,288.822 334.5,287.5C 333.167,287.5 331.833,287.5 330.5,287.5C 329.833,287.5 329.167,287.5 328.5,287.5C 331.258,286.033 330.925,285.367 327.5,285.5C 327.167,285.5 326.833,285.5 326.5,285.5C 325.5,284.833 324.5,284.167 323.5,283.5C 323.5,282.833 323.167,282.5 322.5,282.5C 322.5,281.833 322.167,281.5 321.5,281.5C 321.5,280.833 321.167,280.5 320.5,280.5C 320.5,279.833 320.167,279.5 319.5,279.5C 319.5,278.833 319.167,278.5 318.5,278.5C 317.099,275.201 315.265,274.868 313,277.5C 311.812,276.437 311.312,275.103 311.5,273.5C 312.149,209.966 312.815,146.299 313.5,82.5 Z M 388.5,193.5 C 389.788,195.035 389.788,196.701 388.5,198.5C 383.992,201.253 379.659,204.253 375.5,207.5C 374.548,205.955 374.215,204.288 374.5,202.5C 378.381,201.226 382.048,199.393 385.5,197C 387.063,196.241 388.063,195.074 388.5,193.5 Z M 375.5,186.5 C 379.783,184.209 383.783,181.543 387.5,178.5C 388.117,178.389 388.617,178.056 389,177.5C 389.798,179.259 389.631,180.926 388.5,182.5C 383.983,185.257 379.649,188.257 375.5,191.5C 374.212,189.701 374.212,188.035 375.5,186.5 Z"/></g>
<g><path style="opacity:0.829" fill="#134879" d="M 278.5,226.5 C 270.735,231.892 262.735,237.058 254.5,242C 251.913,243.525 251.08,245.692 252,248.5C 261.397,241.923 270.897,235.59 280.5,229.5C 280.259,232.999 281.092,233.332 283,230.5C 284.84,231.833 285.34,231.666 284.5,230C 285.253,228.513 286.086,228.346 287,229.5C 287.072,234.414 287.239,239.247 287.5,244C 287.129,246.856 286.629,249.689 286,252.5C 285.683,250.699 285.016,250.366 284,251.5C 283.577,250.044 282.744,249.544 281.5,250C 280.624,251.585 279.291,252.585 277.5,253C 277.519,254.521 277.852,256.021 278.5,257.5C 270.564,263.81 262.23,269.643 253.5,275C 251.579,276.241 251.246,277.741 252.5,279.5C 261.899,273.144 271.232,266.81 280.5,260.5C 282.045,259.77 282.878,258.437 283,256.5C 283.093,259.007 283.926,261.174 285.5,263C 284.572,263.388 283.905,264.055 283.5,265C 284.286,266.752 284.12,268.586 283,270.5C 281.538,268.292 279.705,267.626 277.5,268.5C 278.689,269.429 280.022,269.762 281.5,269.5C 281.473,271.199 280.806,272.533 279.5,273.5C 271.299,279.097 262.965,284.43 254.5,289.5C 250.645,288.845 247.812,290.179 246,293.5C 245.578,291.645 245.078,289.811 244.5,288C 245.167,277.333 245.833,266.667 246.5,256C 246.127,229.784 245.794,203.617 245.5,177.5C 244.833,177.5 244.5,177.167 244.5,176.5C 244.5,175.833 244.167,175.5 243.5,175.5C 242.833,175.5 242.5,175.167 242.5,174.5C 241.508,174.672 240.842,174.338 240.5,173.5C 241.557,172.794 241.224,172.461 239.5,172.5C 238.833,172.5 238.5,172.167 238.5,171.5C 238.167,170.167 237.833,170.167 237.5,171.5C 236.833,171.5 236.5,171.167 236.5,170.5C 236.539,168.776 236.206,168.443 235.5,169.5C 234.833,169.5 234.5,169.167 234.5,168.5C 234.5,168.167 234.5,167.833 234.5,167.5C 234.594,164.932 235.928,163.432 238.5,163C 238.167,162.667 237.833,162.333 237.5,162C 238.381,161.292 239.047,160.458 239.5,159.5C 252.444,151.355 265.444,143.188 278.5,135C 280.325,133.534 280.825,131.701 280,129.5C 268.585,137.124 257.085,144.624 245.5,152C 242.706,153.535 240.706,155.702 239.5,158.5C 237.416,156.725 236.249,154.392 236,151.5C 235.103,155.414 234.603,155.248 234.5,151C 234.603,146.752 235.103,146.586 236,150.5C 236.249,147.608 237.416,145.275 239.5,143.5C 252.434,135.359 265.434,127.192 278.5,119C 280.396,117.192 280.896,115.025 280,112.5C 266.77,122.201 253.27,131.534 239.5,140.5C 237.665,139.878 236.498,138.544 236,136.5C 235.667,137.167 235.333,137.833 235,138.5C 234.333,136.167 234.333,133.833 235,131.5C 235.333,132.167 235.667,132.833 236,133.5C 236.333,132.167 236.667,130.833 237,129.5C 238.786,133.396 239.953,133.063 240.5,128.5C 253.459,119.558 266.459,110.558 279.5,101.5C 280.631,99.9255 280.798,98.2588 280,96.5C 267.085,106.04 253.919,115.206 240.5,124C 239.748,124.671 239.414,125.504 239.5,126.5C 236.678,122.717 235.845,118.384 237,113.5C 237.333,114.167 237.667,114.833 238,115.5C 238.232,114.263 238.732,113.263 239.5,112.5C 252.007,103.838 264.673,95.3384 277.5,87C 279.847,85.809 280.68,83.9757 280,81.5C 265.613,89.7584 252.113,99.0917 239.5,109.5C 238.5,109.5 237.5,109.5 236.5,109.5C 236.657,108.127 236.49,106.793 236,105.5C 235.667,105.833 235.333,106.167 235,106.5C 234.333,104.167 234.333,101.833 235,99.5C 235.333,101.167 235.667,102.833 236,104.5C 236.297,101.086 236.964,97.7527 238,94.5C 238.383,95.056 238.883,95.3893 239.5,95.5C 252.76,87.4843 266.094,78.8176 279.5,69.5C 279.351,70.552 279.517,71.552 280,72.5C 281.333,71.1667 282.667,71.1667 284,72.5C 285.692,69.0379 286.859,65.0379 287.5,60.5C 287.423,56.9258 287.257,53.2591 287,49.5C 288.079,52.7121 288.579,56.0454 288.5,59.5C 288.022,65.3413 287.355,71.008 286.5,76.5C 287.415,77.3279 288.081,78.3279 288.5,79.5C 287.491,82.8223 286.491,86.1556 285.5,89.5C 286.167,99.5 286.833,109.5 287.5,119.5C 286.791,149.202 286.457,178.535 286.5,207.5C 287.196,211.985 287.863,216.485 288.5,221C 287.95,225.158 286.616,225.491 284.5,222C 285.791,218.975 285.124,218.641 282.5,221C 283.711,221.893 283.711,222.726 282.5,223.5C 281.749,222.624 281.249,221.624 281,220.5C 279.094,222.408 278.26,224.408 278.5,226.5 Z M 279.5,145.5 C 269.575,152.807 259.242,159.64 248.5,166C 244.47,168.596 244.804,169.929 249.5,170C 258.228,163.608 267.228,157.608 276.5,152C 278.122,150.705 279.455,149.205 280.5,147.5C 280.457,146.584 280.124,145.917 279.5,145.5 Z M 278.5,257.5 C 280.048,257.821 280.715,258.821 280.5,260.5C 271.232,266.81 261.899,273.144 252.5,279.5C 251.246,277.741 251.579,276.241 253.5,275C 262.23,269.643 270.564,263.81 278.5,257.5 Z M 278.5,241.5 C 271.088,247.718 263.088,253.218 254.5,258C 251.913,259.525 251.08,261.692 252,264.5C 260.888,257.95 270.055,251.784 279.5,246C 281.043,243.955 280.71,242.455 278.5,241.5 Z M 278.5,209.5 C 270.083,216.229 261.083,222.229 251.5,227.5C 251.34,229.199 251.506,230.866 252,232.5C 261.333,226.167 270.667,219.833 280,213.5C 280.844,211.537 280.344,210.204 278.5,209.5 Z M 278.5,193.5 C 270.101,199.767 261.435,205.767 252.5,211.5C 251.369,213.074 251.202,214.741 252,216.5C 261.167,210.333 270.333,204.167 279.5,198C 281.043,195.955 280.71,194.455 278.5,193.5 Z M 278.5,177.5 C 271.389,183.562 263.723,188.895 255.5,193.5C 252.878,194.952 251.212,197.119 250.5,200C 260.148,194.323 269.815,188.323 279.5,182C 281.043,179.955 280.71,178.455 278.5,177.5 Z M 278.5,161.5 C 270.248,167.971 261.581,173.971 252.5,179.5C 251.756,180.991 251.09,182.491 250.5,184C 251.167,184.667 251.833,184.667 252.5,184C 260.228,178.274 268.228,172.941 276.5,168C 278.122,166.705 279.455,165.205 280.5,163.5C 280.253,162.287 279.586,161.62 278.5,161.5 Z"/></g>
<g><path style="opacity:0.004" fill="#000000" d="M 446.5,146.5 C 447.833,147.167 447.833,147.167 446.5,146.5 Z"/></g>
<g><path style="opacity:0.961" fill="#134879" d="M 213.5,152.5 C 213.167,153.167 212.833,153.833 212.5,154.5C 211.501,200.33 211.168,246.33 211.5,292.5C 209.833,292.5 208.167,292.5 206.5,292.5C 208.607,293.468 210.941,293.802 213.5,293.5C 214.791,293.263 215.791,293.596 216.5,294.5C 219.287,295.477 222.287,295.81 225.5,295.5C 226.066,299.806 226.732,300.139 227.5,296.5C 230.728,297.414 234.061,297.747 237.5,297.5C 238.167,297.5 238.833,297.5 239.5,297.5C 240.263,298.268 241.263,298.768 242.5,299C 245.817,299.498 249.15,299.665 252.5,299.5C 252.672,298.508 252.338,297.842 251.5,297.5C 251.5,297.167 251.5,296.833 251.5,296.5C 260.271,290.38 269.271,284.714 278.5,279.5C 277.735,282.096 277.401,284.763 277.5,287.5C 278.925,289.031 279.591,288.698 279.5,286.5C 279.5,286.167 279.5,285.833 279.5,285.5C 280.167,285.5 280.5,285.167 280.5,284.5C 281.167,284.5 281.5,284.167 281.5,283.5C 282.167,283.5 282.5,283.167 282.5,282.5C 283.833,282.167 283.833,281.833 282.5,281.5C 281.549,280.081 281.216,278.415 281.5,276.5C 282.5,276.5 283.5,276.5 284.5,276.5C 284.34,274.801 284.506,273.134 285,271.5C 285.792,273.644 287.292,274.977 289.5,275.5C 289.5,275.833 289.5,276.167 289.5,276.5C 290.167,276.5 290.5,276.167 290.5,275.5C 291.167,275.5 291.5,275.167 291.5,274.5C 291.833,274.5 292.167,274.5 292.5,274.5C 292.783,275.289 293.283,275.956 294,276.5C 295.877,274.209 295.71,272.209 293.5,270.5C 295.071,268.585 297.071,267.585 299.5,267.5C 299.5,267.833 299.5,268.167 299.5,268.5C 299.672,269.492 299.338,270.158 298.5,270.5C 298.167,269.167 297.833,269.167 297.5,270.5C 297.783,271.289 298.283,271.956 299,272.5C 300.852,271.305 302.019,269.638 302.5,267.5C 302.5,266.833 302.833,266.5 303.5,266.5C 305.314,269.454 307.314,269.788 309.5,267.5C 309.154,266.304 308.654,266.304 308,267.5C 307.333,241.833 307.333,216.167 308,190.5C 308.333,215.5 308.667,240.5 309,265.5C 309.21,263.942 309.71,262.609 310.5,261.5C 311.011,265.03 310.344,268.196 308.5,271C 309.942,271.377 310.942,272.21 311.5,273.5C 311.312,275.103 311.812,276.437 313,277.5C 315.265,274.868 317.099,275.201 318.5,278.5C 319.167,278.5 319.5,278.833 319.5,279.5C 320.167,279.5 320.5,279.833 320.5,280.5C 321.167,280.5 321.5,280.833 321.5,281.5C 322.167,281.5 322.5,281.833 322.5,282.5C 323.167,282.5 323.5,282.833 323.5,283.5C 324.5,284.167 325.5,284.833 326.5,285.5C 326.833,286.833 327.167,286.833 327.5,285.5C 330.925,285.367 331.258,286.033 328.5,287.5C 329.167,288.833 329.833,288.833 330.5,287.5C 331.833,287.5 333.167,287.5 334.5,287.5C 334.67,288.822 334.337,289.989 333.5,291C 335.093,291.949 336.426,293.115 337.5,294.5C 338.167,294.5 338.5,294.833 338.5,295.5C 342.659,294.002 344.326,295.335 343.5,299.5C 344.762,302.467 346.762,303.134 349.5,301.5C 348.555,303.565 347.888,305.399 347.5,307C 348.833,309 350.167,309 351.5,307C 350.483,305.951 350.316,304.784 351,303.5C 353.015,302.303 354.849,300.97 356.5,299.5C 359.877,299.932 362.877,299.265 365.5,297.5C 366.167,297.5 366.833,297.5 367.5,297.5C 370.518,297.665 373.518,297.498 376.5,297C 377.416,296.722 378.082,296.222 378.5,295.5C 385.595,295.515 392.595,294.681 399.5,293C 398.552,292.517 397.552,292.351 396.5,292.5C 396.167,272.5 395.833,272.5 395.5,292.5C 394.5,292.5 393.5,292.5 392.5,292.5C 393.028,291.279 393.695,290.113 394.5,289C 393.24,287.887 392.073,287.72 391,288.5C 390.581,287.328 389.915,286.328 389,285.5C 388.544,284.256 389.044,283.423 390.5,283C 388.005,283.412 385.671,283.245 383.5,282.5C 385.151,281.03 386.985,279.697 389,278.5C 389.781,277.056 389.614,275.723 388.5,274.5C 384.278,277.44 379.945,280.106 375.5,282.5C 374.859,281.518 374.193,280.518 373.5,279.5C 374.13,276.312 375.13,273.312 376.5,270.5C 380.783,268.057 384.95,265.39 389,262.5C 389.667,260.833 389.667,259.167 389,257.5C 384.653,261.416 379.82,264.416 374.5,266.5C 373.429,262.761 373.429,259.095 374.5,255.5C 378.778,253.023 383.112,250.523 387.5,248C 389.325,246.534 389.825,244.701 389,242.5C 385.508,244.999 382.008,247.499 378.5,250C 377.207,250.49 375.873,250.657 374.5,250.5C 373.352,246.547 373.352,242.88 374.5,239.5C 378.778,237.023 383.112,234.523 387.5,232C 389.325,230.534 389.825,228.701 389,226.5C 383.98,229.415 379.147,232.415 374.5,235.5C 373.842,234.602 373.176,233.602 372.5,232.5C 371.914,232.709 371.414,233.043 371,233.5C 370.333,229.167 370.333,224.833 371,220.5C 371.623,225.235 372.79,225.568 374.5,221.5C 374.369,222.376 374.702,223.043 375.5,223.5C 380.783,220.542 385.45,216.876 389.5,212.5C 389.561,210.279 388.895,209.946 387.5,211.5C 387.586,210.504 387.252,209.671 386.5,209C 388.256,208.86 389.922,209.36 391.5,210.5C 392.192,209.975 392.692,209.308 393,208.5C 392.97,211.361 393.803,213.695 395.5,215.5C 396.833,214.833 396.833,214.167 395.5,213.5C 395.5,211.167 395.5,208.833 395.5,206.5C 396.833,205.5 396.833,204.5 395.5,203.5C 395.279,200.721 395.612,198.054 396.5,195.5C 395.833,195.5 395.5,195.167 395.5,194.5C 395.91,188.379 395.41,182.379 394,176.5C 392.984,175.366 392.317,175.699 392,177.5C 391.326,176.422 390.326,175.755 389,175.5C 385.516,175.741 385.016,176.741 387.5,178.5C 383.783,181.543 379.783,184.209 375.5,186.5C 375.047,185.542 374.381,184.708 373.5,184C 374.289,180.686 374.622,177.519 374.5,174.5C 374.897,175.525 375.563,175.692 376.5,175C 380.753,172.29 384.92,169.457 389,166.5C 389.667,164.833 389.667,163.167 389,161.5C 385.778,164.528 382.278,167.195 378.5,169.5C 377.833,165.5 377.167,165.5 376.5,169.5C 375.325,169.719 374.325,169.386 373.5,168.5C 374.561,164.607 374.228,160.773 372.5,157C 372.841,153.452 374.507,152.285 377.5,153.5C 376.791,154.404 375.791,154.737 374.5,154.5C 374.215,156.288 374.548,157.955 375.5,159.5C 380.136,156.696 384.636,153.696 389,150.5C 389.781,149.056 389.614,147.723 388.5,146.5C 385.496,148.503 382.496,150.503 379.5,152.5C 377.45,150.763 375.617,148.763 374,146.5C 373.235,144.934 373.402,143.601 374.5,142.5C 374.435,142.938 374.601,143.272 375,143.5C 379.57,140.315 384.237,137.315 389,134.5C 389.781,133.056 389.614,131.723 388.5,130.5C 385.496,132.503 382.496,134.503 379.5,136.5C 378.5,136.5 377.5,136.5 376.5,136.5C 376.36,134.876 377.027,133.71 378.5,133C 377.244,132.583 376.577,131.75 376.5,130.5C 382.164,126.69 387.998,123.023 394,119.5C 394.945,119.905 395.612,120.572 396,121.5C 396.561,120.978 397.228,120.645 398,120.5C 414.379,130.276 430.879,139.943 447.5,149.5C 448.667,200.83 448.833,252.163 448,303.5C 447.107,302.289 446.274,302.289 445.5,303.5C 470.837,325.486 496.503,346.986 522.5,368C 524.515,369.555 524.848,371.389 523.5,373.5C 511.45,372.979 499.45,372.146 487.5,371C 467.939,353.603 447.939,336.769 427.5,320.5C 417.355,328.478 407.355,336.644 397.5,345C 406.542,353.045 415.876,360.711 425.5,368C 427.245,369.692 427.578,371.525 426.5,373.5C 415.213,372.688 403.879,372.188 392.5,372C 362.684,346.928 332.684,322.095 302.5,297.5C 272.687,322.145 243.02,346.978 213.5,372C 201.819,372.833 190.152,372.666 178.5,371.5C 187.763,362.003 197.763,353.169 208.5,345C 198.023,337.024 187.69,328.857 177.5,320.5C 156.727,337.103 136.394,354.27 116.5,372C 104.505,372.5 92.5046,372.667 80.5,372.5C 80.393,370.097 81.393,368.264 83.5,367C 109.272,346.398 134.605,325.231 159.5,303.5C 158.675,302.614 157.675,302.281 156.5,302.5C 157.149,263.858 157.816,225.191 158.5,186.5C 176.193,174.323 194.193,162.656 212.5,151.5C 213.107,151.624 213.44,151.957 213.5,152.5 Z M 303.5,266.5 C 302.833,266.5 302.5,266.833 302.5,267.5C 301.227,266.923 301.227,266.257 302.5,265.5C 303.107,265.624 303.44,265.957 303.5,266.5 Z M 204.5,258.5 C 205.649,258.791 206.316,259.624 206.5,261C 206.167,261.833 205.833,262.667 205.5,263.5C 194.661,270.419 183.994,277.586 173.5,285C 170.299,287.267 166.966,288.934 163.5,290C 163.13,288.39 163.797,286.89 165.5,285.5C 174.024,279.816 182.691,274.316 191.5,269C 196.34,265.941 200.673,262.441 204.5,258.5 Z M 376.5,270.5 C 375.883,270.611 375.383,270.944 375,271.5C 374.506,269.866 374.34,268.199 374.5,266.5C 379.82,264.416 384.653,261.416 389,257.5C 389.667,259.167 389.667,260.833 389,262.5C 384.95,265.39 380.783,268.057 376.5,270.5 Z M 278.5,257.5 C 280.048,257.821 280.715,258.821 280.5,260.5C 271.232,266.81 261.899,273.144 252.5,279.5C 251.246,277.741 251.579,276.241 253.5,275C 262.23,269.643 270.564,263.81 278.5,257.5 Z M 204.5,243.5 C 205.497,243.47 206.164,243.97 206.5,245C 205.899,246.605 204.899,247.938 203.5,249C 192.2,256.655 180.867,264.322 169.5,272C 167.408,272.851 165.408,273.518 163.5,274C 162.939,272.434 163.606,271.101 165.5,270C 178.86,261.615 191.86,252.782 204.5,243.5 Z M 374.5,255.5 C 374.5,253.833 374.5,252.167 374.5,250.5C 375.873,250.657 377.207,250.49 378.5,250C 382.008,247.499 385.508,244.999 389,242.5C 389.825,244.701 389.325,246.534 387.5,248C 383.112,250.523 378.778,253.023 374.5,255.5 Z M 278.5,241.5 C 271.088,247.718 263.088,253.218 254.5,258C 251.913,259.525 251.08,261.692 252,264.5C 260.888,257.95 270.055,251.784 279.5,246C 281.043,243.955 280.71,242.455 278.5,241.5 Z M 204.5,227.5 C 206.981,228.696 206.981,230.196 204.5,232C 191.188,240.381 178.188,249.214 165.5,258.5C 164.152,256.389 164.485,254.555 166.5,253C 179.071,244.245 191.738,235.745 204.5,227.5 Z M 374.5,239.5 C 374.5,238.167 374.5,236.833 374.5,235.5C 379.147,232.415 383.98,229.415 389,226.5C 389.825,228.701 389.325,230.534 387.5,232C 383.112,234.523 378.778,237.023 374.5,239.5 Z M 280.5,229.5 C 270.897,235.59 261.397,241.923 252,248.5C 251.08,245.692 251.913,243.525 254.5,242C 262.735,237.058 270.735,231.892 278.5,226.5C 279.117,226.389 279.617,226.056 280,225.5C 280.49,226.793 280.657,228.127 280.5,229.5 Z M 203.5,211.5 C 204.5,211.5 205.5,211.5 206.5,211.5C 206.703,213.39 206.037,214.89 204.5,216C 191.04,224.624 177.707,233.457 164.5,242.5C 164.167,242.333 163.833,242.167 163.5,242C 164.09,240.491 164.756,238.991 165.5,237.5C 178.482,229.166 191.149,220.499 203.5,211.5 Z M 374.5,221.5 C 374.5,220.5 374.5,219.5 374.5,218.5C 379.041,216.643 383.375,214.309 387.5,211.5C 388.895,209.946 389.561,210.279 389.5,212.5C 385.45,216.876 380.783,220.542 375.5,223.5C 374.702,223.043 374.369,222.376 374.5,221.5 Z M 278.5,209.5 C 270.083,216.229 261.083,222.229 251.5,227.5C 251.34,229.199 251.506,230.866 252,232.5C 261.333,226.167 270.667,219.833 280,213.5C 280.844,211.537 280.344,210.204 278.5,209.5 Z M 204.5,195.5 C 206.981,196.696 206.981,198.196 204.5,200C 191.994,208.086 179.661,216.419 167.5,225C 166.241,225.982 164.908,226.315 163.5,226C 164.051,224.602 164.384,223.268 164.5,222C 178.414,213.888 191.747,205.055 204.5,195.5 Z M 388.5,193.5 C 388.063,195.074 387.063,196.241 385.5,197C 382.048,199.393 378.381,201.226 374.5,202.5C 374.215,204.288 374.548,205.955 375.5,207.5C 379.659,204.253 383.992,201.253 388.5,198.5C 389.788,196.701 389.788,195.035 388.5,193.5 Z M 278.5,193.5 C 270.101,199.767 261.435,205.767 252.5,211.5C 251.369,213.074 251.202,214.741 252,216.5C 261.167,210.333 270.333,204.167 279.5,198C 281.043,195.955 280.71,194.455 278.5,193.5 Z M 205.5,178.5 C 206.887,180.489 206.553,182.322 204.5,184C 191.994,192.086 179.661,200.419 167.5,209C 166.241,209.982 164.908,210.315 163.5,210C 164.051,208.602 164.384,207.268 164.5,206C 178.344,196.97 192.01,187.804 205.5,178.5 Z M 375.5,186.5 C 379.783,184.209 383.783,181.543 387.5,178.5C 388.117,178.389 388.617,178.056 389,177.5C 389.798,179.259 389.631,180.926 388.5,182.5C 383.983,185.257 379.649,188.257 375.5,191.5C 374.212,189.701 374.212,188.035 375.5,186.5 Z M 278.5,177.5 C 271.389,183.562 263.723,188.895 255.5,193.5C 252.878,194.952 251.212,197.119 250.5,200C 260.148,194.323 269.815,188.323 279.5,182C 281.043,179.955 280.71,178.455 278.5,177.5 Z M 205.5,162.5 C 206.887,164.489 206.553,166.322 204.5,168C 191.979,176.091 179.646,184.424 167.5,193C 163.092,194.713 162.758,193.379 166.5,189C 179.903,180.642 192.903,171.809 205.5,162.5 Z M 374.5,174.5 C 374.5,173.167 374.5,171.833 374.5,170.5C 375.959,170.567 377.292,170.234 378.5,169.5C 382.278,167.195 385.778,164.528 389,161.5C 389.667,163.167 389.667,164.833 389,166.5C 384.92,169.457 380.753,172.29 376.5,175C 375.563,175.692 374.897,175.525 374.5,174.5 Z M 278.5,161.5 C 270.248,167.971 261.581,173.971 252.5,179.5C 251.756,180.991 251.09,182.491 250.5,184C 251.167,184.667 251.833,184.667 252.5,184C 260.228,178.274 268.228,172.941 276.5,168C 278.122,166.705 279.455,165.205 280.5,163.5C 280.253,162.287 279.586,161.62 278.5,161.5 Z M 212.5,154.5 C 212.172,200.905 212.505,247.239 213.5,293.5C 210.941,293.802 208.607,293.468 206.5,292.5C 208.167,292.5 209.833,292.5 211.5,292.5C 211.168,246.33 211.501,200.33 212.5,154.5 Z M 377.5,153.5 C 378.492,153.672 379.158,153.338 379.5,152.5C 382.496,150.503 385.496,148.503 388.5,146.5C 389.614,147.723 389.781,149.056 389,150.5C 384.636,153.696 380.136,156.696 375.5,159.5C 374.548,157.955 374.215,156.288 374.5,154.5C 375.791,154.737 376.791,154.404 377.5,153.5 Z M 279.5,273.5 C 280.808,275.638 280.475,277.638 278.5,279.5C 269.271,284.714 260.271,290.38 251.5,296.5C 250.909,293.325 251.909,290.991 254.5,289.5C 262.965,284.43 271.299,279.097 279.5,273.5 Z M 193.5,290.5 C 189.033,290.867 184.7,290.367 180.5,289C 183.289,288.759 185.956,288.092 188.5,287C 194.245,282.711 200.079,278.544 206,274.5C 206.798,276.259 206.631,277.926 205.5,279.5C 201.668,282.25 197.668,284.75 193.5,287C 192.316,288.145 192.316,289.312 193.5,290.5 Z M 383.5,282.5 C 380.777,284.281 377.943,285.948 375,287.5C 374.22,285.613 374.387,283.946 375.5,282.5C 379.945,280.106 384.278,277.44 388.5,274.5C 389.614,275.723 389.781,277.056 389,278.5C 386.985,279.697 385.151,281.03 383.5,282.5 Z M 289.5,276.5 C 289.167,277.5 288.5,278.167 287.5,278.5C 287.5,277.167 288.167,276.5 289.5,276.5 Z M 378.5,295.5 C 382.208,294.842 385.541,293.175 388.5,290.5C 389.368,292.796 390.702,293.463 392.5,292.5C 393.5,292.5 394.5,292.5 395.5,292.5C 395.833,272.5 396.167,272.5 396.5,292.5C 397.552,292.351 398.552,292.517 399.5,293C 392.595,294.681 385.595,295.515 378.5,295.5 Z M 417.5,288.5 C 419.857,288.337 422.19,288.503 424.5,289C 421.367,290.57 418.033,290.903 414.5,290C 415.737,289.768 416.737,289.268 417.5,288.5 Z M 193.5,290.5 C 197.761,291.051 201.928,291.051 206,290.5C 206.464,291.094 206.631,291.761 206.5,292.5C 202.818,292.665 199.152,292.499 195.5,292C 194.584,291.722 193.918,291.222 193.5,290.5 Z M 403.5,290.5 C 406.518,290.335 409.518,290.502 412.5,291C 408.961,292.504 405.295,292.837 401.5,292C 402.416,291.722 403.082,291.222 403.5,290.5 Z M 227.5,296.5 C 230.959,295.135 234.292,295.469 237.5,297.5C 234.061,297.747 230.728,297.414 227.5,296.5 Z M 378.5,295.5 C 378.082,296.222 377.416,296.722 376.5,297C 373.518,297.498 370.518,297.665 367.5,297.5C 370.845,295.783 374.511,295.116 378.5,295.5 Z M 438.5,297.5 C 436.972,297.483 436.472,296.816 437,295.5C 437.717,296.044 438.217,296.711 438.5,297.5 Z M 239.5,297.5 C 243.604,298.006 247.604,298.006 251.5,297.5C 252.338,297.842 252.672,298.508 252.5,299.5C 249.15,299.665 245.817,299.498 242.5,299C 241.263,298.768 240.263,298.268 239.5,297.5 Z M 365.5,297.5 C 362.877,299.265 359.877,299.932 356.5,299.5C 359.123,297.735 362.123,297.068 365.5,297.5 Z M 252.5,299.5 C 256.05,299.67 259.383,299.837 262.5,300C 261.335,301.084 260.002,301.917 258.5,302.5C 256.556,301.199 254.556,300.199 252.5,299.5 Z M 343.5,299.5 C 346.667,299.675 350.001,299.841 353.5,300C 351.942,300.21 350.609,300.71 349.5,301.5C 346.762,303.134 344.762,302.467 343.5,299.5 Z"/></g>
<g><path style="opacity:0.004" fill="#000000" d="M 291.5,308.5 C 292.833,309.167 292.833,309.167 291.5,308.5 Z"/></g>
<g><path style="opacity:0.004" fill="#000000" d="M 280.5,317.5 C 281.833,318.167 281.833,318.167 280.5,317.5 Z"/></g>
<g><path style="opacity:0.004" fill="#000000" d="M 275.5,322.5 C 276.833,323.167 276.833,323.167 275.5,322.5 Z"/></g>
<g><path style="opacity:0.004" fill="#000000" d="M 170.5,328.5 C 172.924,328.192 175.257,328.526 177.5,329.5C 176.333,329.833 175.167,330.167 174,330.5C 172.319,330.392 171.152,329.725 170.5,328.5 Z"/></g>
<g><path style="opacity:0.004" fill="#000000" d="M 419.5,328.5 C 420.675,328.281 421.675,328.614 422.5,329.5C 421.277,330.614 419.944,330.781 418.5,330C 419.056,329.617 419.389,329.117 419.5,328.5 Z"/></g>
<g><path style="opacity:0.008" fill="#154c4c" d="M 431.5,328.5 C 433.429,328.231 435.095,328.731 436.5,330C 435.667,330.167 434.833,330.333 434,330.5C 432.624,330.316 431.791,329.649 431.5,328.5 Z"/></g>
<g><path style="opacity:0.004" fill="#000000" d="M 481.5,331.5 C 482.833,332.167 482.833,332.167 481.5,331.5 Z"/></g>
<g><path style="opacity:0.004" fill="#0f1c1c" d="M 413.5,333.5 C 414.713,334.497 414.546,335.497 413,336.5C 412.53,335.423 412.697,334.423 413.5,333.5 Z"/></g>
<g><path style="opacity:0.004" fill="#000000" d="M 260.5,334.5 C 261.833,335.167 261.833,335.167 260.5,334.5 Z"/></g>
<g><path style="opacity:0.004" fill="#000000" d="M 257.5,336.5 C 258.833,337.167 258.833,337.167 257.5,336.5 Z"/></g>
<g><path style="opacity:0.762" fill="#124879" d="M 418.5,332.5 C 425.422,332.188 432.256,332.521 439,333.5C 440.396,341.08 440.896,348.747 440.5,356.5C 432.5,356.5 424.5,356.5 416.5,356.5C 416.334,349.159 416.5,341.826 417,334.5C 417.717,333.956 418.217,333.289 418.5,332.5 Z"/></g>
<g><path style="opacity:0.832" fill="#124779" d="M 167.5,332.5 C 174.175,332.334 180.842,332.5 187.5,333C 188,333.5 188.5,334 189,334.5C 189.812,341.747 189.646,348.914 188.5,356C 180.92,356.813 173.42,356.647 166,355.5C 164.982,347.636 165.482,339.97 167.5,332.5 Z"/></g>
<g><path style="opacity:0.004" fill="#000000" d="M 442.5,342.5 C 443.525,342.897 443.692,343.563 443,344.5C 442.536,343.906 442.369,343.239 442.5,342.5 Z"/></g>
<g><path style="opacity:0.004" fill="#000000" d="M 151.5,343.5 C 152.833,344.167 152.833,344.167 151.5,343.5 Z"/></g>
<g><path style="opacity:0.004" fill="#000000" d="M 324.5,346.5 C 325.833,347.167 325.833,347.167 324.5,346.5 Z"/></g>
<g><path style="opacity:0.004" fill="#000000" d="M 243.5,348.5 C 244.833,349.167 244.833,349.167 243.5,348.5 Z"/></g>
<g><path style="opacity:0.004" fill="#000000" d="M 324.5,349.5 C 325.525,349.897 325.692,350.563 325,351.5C 324.536,350.906 324.369,350.239 324.5,349.5 Z"/></g>
<g><path style="opacity:0.004" fill="#000000" d="M 142.5,351.5 C 143.773,352.077 143.773,352.743 142.5,353.5C 141.537,353.03 141.537,352.363 142.5,351.5 Z"/></g>
<g><path style="opacity:0.004" fill="#000000" d="M 238.5,353.5 C 238.897,352.475 239.563,352.308 240.5,353C 239.906,353.464 239.239,353.631 238.5,353.5 Z"/></g>
<g><path style="opacity:0.907" fill="#134778" d="M 287.5,328.5 C 297.839,328.334 308.172,328.5 318.5,329C 319.931,329.465 321.097,330.299 322,331.5C 323.42,344.106 323.92,356.772 323.5,369.5C 309.484,369.833 295.484,369.499 281.5,368.5C 282.313,356.546 282.813,344.546 283,332.5C 284.397,330.93 285.897,329.596 287.5,328.5 Z"/></g>
<g><path style="opacity:0.004" fill="#000000" d="M 139.5,354.5 C 140.833,355.167 140.833,355.167 139.5,354.5 Z"/></g>
<g><path style="opacity:0.004" fill="#000000" d="M 427.5,358.5 C 427.897,357.475 428.563,357.308 429.5,358C 428.906,358.464 428.239,358.631 427.5,358.5 Z"/></g>
<g><path style="opacity:0.004" fill="#000000" d="M 324.5,367.5 C 325.525,367.897 325.692,368.563 325,369.5C 324.536,368.906 324.369,368.239 324.5,367.5 Z"/></g>
<g><path style="opacity:0.004" fill="#000000" d="M 121.5,368.5 C 122.833,369.167 122.833,369.167 121.5,368.5 Z"/></g>
<g><path style="opacity:0.941" fill="#12497a" d="M 583.5,376.5 C 584.239,376.369 584.906,376.536 585.5,377C 583.671,378.113 582.837,379.613 583,381.5C 586.388,377.296 587.055,377.629 585,382.5C 577.258,392.314 570.258,402.648 564,413.5C 561.905,421.263 563.739,427.763 569.5,433C 562.167,433.667 554.833,433.667 547.5,433C 553.833,432.667 560.167,432.333 566.5,432C 561.008,430.714 555.341,430.047 549.5,430C 550.667,428.833 551.833,427.667 553,426.5C 553.667,421.833 553.667,417.167 553,412.5C 549.667,407.167 546.333,401.833 543,396.5C 541.167,393.333 538.667,390.833 535.5,389C 541.552,388.21 547.552,388.376 553.5,389.5C 553.833,389.833 554.167,390.167 554.5,390.5C 553.833,391.5 553.167,392.5 552.5,393.5C 555.333,397.833 558.167,402.167 561,406.5C 564,401.5 567,396.5 570,391.5C 570.895,388.534 570.395,385.867 568.5,383.5C 573.653,381.346 578.653,379.012 583.5,376.5 Z"/></g>
<g><path style="opacity:0.935" fill="#12487a" d="M 511.5,387.5 C 517.775,386.948 523.775,387.948 529.5,390.5C 530.748,389.96 531.915,389.293 533,388.5C 532.333,391.167 531.667,393.833 531,396.5C 532.333,394.5 533.667,392.5 535,390.5C 534.317,395.213 532.484,399.546 529.5,403.5C 528.808,402.975 528.308,402.308 528,401.5C 527.667,401.833 527.333,402.167 527,402.5C 526.681,396.848 523.681,393.848 518,393.5C 513.908,394.594 511.574,397.261 511,401.5C 510.333,407.167 510.333,412.833 511,418.5C 514.955,430.498 520.622,431.498 528,421.5C 528.494,419.866 528.66,418.199 528.5,416.5C 530.5,416.833 532.5,417.167 534.5,417.5C 533.289,432.849 525.289,438.016 510.5,433C 497.893,422.296 495.393,409.462 503,394.5C 505.441,391.546 508.275,389.213 511.5,387.5 Z M 509.5,421.5 C 505.499,412.562 505.666,403.562 510,394.5C 512.945,390.956 516.445,390.123 520.5,392C 514.179,391.569 510.345,394.402 509,400.5C 508.325,407.528 508.492,414.528 509.5,421.5 Z M 527.5,429.5 C 522.614,433.87 517.281,434.537 511.5,431.5C 517.023,431.931 522.356,431.264 527.5,429.5 Z"/></g>
<g><path style="opacity:0.936" fill="#12487a" d="M 16.5,389.5 C 29.6726,388.175 43.0059,388.175 56.5,389.5C 57.1667,390.167 57.8333,390.833 58.5,391.5C 56.8289,394.842 55.1622,398.176 53.5,401.5C 51.2809,396.891 47.6142,394.557 42.5,394.5C 42.3335,405.505 42.5002,416.505 43,427.5C 49.1505,433.113 47.6505,435.113 38.5,433.5C 35.5,433.333 32.5,433.167 29.5,433C 34.5,432.667 39.5,432.333 44.5,432C 44.1667,431.667 43.8333,431.333 43.5,431C 38.5,430.667 33.5,430.333 28.5,430C 29.354,428.978 30.354,428.145 31.5,427.5C 32.4988,416.52 32.8321,405.52 32.5,394.5C 27.9674,394.177 25.1341,396.177 24,400.5C 23.2438,398.191 23.7438,396.191 25.5,394.5C 27.8537,393.94 30.187,393.273 32.5,392.5C 26.5036,391.005 22.8369,393.338 21.5,399.5C 19.8157,396.073 18.1491,392.739 16.5,389.5 Z M 40.5,391.5 C 42.9892,391.298 45.3225,391.798 47.5,393C 46.3333,393.167 45.1667,393.333 44,393.5C 42.3189,393.392 41.1522,392.725 40.5,391.5 Z"/></g>
<g><path style="opacity:0.934" fill="#13487a" d="M 59.5,389.5 C 64.9008,388.175 70.4008,388.175 76,389.5C 76.3446,391.201 75.6779,392.534 74,393.5C 73.0975,404.226 73.4308,414.893 75,425.5C 78.5446,429.218 82.2112,429.218 86,425.5C 88.3112,414.978 88.9779,404.311 88,393.5C 86.5,392 85,390.5 83.5,389C 88.419,388.198 93.2523,388.365 98,389.5C 97.9827,391.568 96.9827,393.234 95,394.5C 94.6667,404.5 94.3333,414.5 94,424.5C 91.7244,431.397 86.891,434.397 79.5,433.5C 75.5138,433.796 71.8471,432.962 68.5,431C 68.8333,430.667 69.1667,430.333 69.5,430C 66.0474,428.272 64.2141,425.438 64,421.5C 63.6667,411.833 63.3333,402.167 63,392.5C 61.9609,391.29 60.7942,390.29 59.5,389.5 Z"/></g>
<g><path style="opacity:0.919" fill="#13497a" d="M 131.5,423.5 C 131.328,424.492 131.662,425.158 132.5,425.5C 132.427,427.027 133.094,428.027 134.5,428.5C 134.5,429.167 134.833,429.5 135.5,429.5C 124.007,430.659 112.341,430.826 100.5,430C 101.931,429.535 103.097,428.701 104,427.5C 104.667,415.833 104.667,404.167 104,392.5C 102.833,391.333 101.667,390.167 100.5,389C 105.833,388.333 111.167,388.333 116.5,389C 117.423,391.048 116.923,392.881 115,394.5C 114.5,405.828 114.333,417.162 114.5,428.5C 122.206,429.289 127.039,425.956 129,418.5C 129.757,420.315 130.59,421.981 131.5,423.5 Z"/></g>
<g><path style="opacity:0.929" fill="#13487a" d="M 135.5,429.5 C 134.833,429.5 134.5,429.167 134.5,428.5C 134.573,426.973 133.906,425.973 132.5,425.5C 132.672,424.508 132.338,423.842 131.5,423.5C 131.281,422.325 131.614,421.325 132.5,420.5C 134.293,423.251 135.959,426.084 137.5,429C 139.163,429.265 140.663,428.765 142,427.5C 142.667,416.5 142.667,405.5 142,394.5C 140.581,393.54 139.081,392.707 137.5,392C 140.943,391.779 141.276,390.779 138.5,389C 144.612,388.091 150.612,388.424 156.5,390C 155.696,391.771 154.529,393.271 153,394.5C 152.333,405.5 152.333,416.5 153,427.5C 154.833,429.333 156.667,431.167 158.5,433C 152.167,433.667 145.833,433.667 139.5,433C 144.5,432.667 149.5,432.333 154.5,432C 151.861,430.882 149.027,430.382 146,430.5C 143.5,430.833 141,431.167 138.5,431.5C 138.291,432.086 137.957,432.586 137.5,433C 125.5,433.667 113.5,433.667 101.5,433C 113.162,432.5 124.829,432.333 136.5,432.5C 136.737,431.209 136.404,430.209 135.5,429.5 Z"/></g>
<g><path style="opacity:0.953" fill="#12487a" d="M 174.5,389.5 C 180.356,388.571 186.189,388.237 192,388.5C 192.5,389 193,389.5 193.5,390C 192.101,391.062 191.101,392.395 190.5,394C 191.811,397.431 192.811,400.931 193.5,404.5C 194.822,404.67 195.989,404.337 197,403.5C 197.324,405.569 198.158,405.902 199.5,404.5C 200.829,407.158 202.162,409.824 203.5,412.5C 201.577,413.308 199.577,413.808 197.5,414C 199.186,418.542 201.019,423.042 203,427.5C 205.46,428.958 207.627,430.791 209.5,433C 202.833,433.667 196.167,433.667 189.5,433C 194.833,432.667 200.167,432.333 205.5,432C 199.673,430.711 193.673,430.044 187.5,430C 192.166,427.811 192.833,424.644 189.5,420.5C 188.998,419.479 188.332,419.312 187.5,420C 185.981,421.351 184.648,422.851 183.5,424.5C 180.939,422.36 178.605,420.027 176.5,417.5C 173.509,423.072 174.176,428.239 178.5,433C 172.167,433.667 165.833,433.667 159.5,433C 164.833,432.667 170.167,432.333 175.5,432C 170.008,430.714 164.341,430.047 158.5,430C 165.863,425.587 169.529,419.254 169.5,411C 168.552,410.517 167.552,410.351 166.5,410.5C 166.444,407.439 167.778,405.272 170.5,404C 170.167,403.667 169.833,403.333 169.5,403C 170.899,402.405 172.232,402.572 173.5,403.5C 175.413,400.434 176.746,397.101 177.5,393.5C 177.246,391.583 176.246,390.249 174.5,389.5 Z M 181.5,401.5 C 183.199,404.237 184.533,407.237 185.5,410.5C 185.547,412 184.881,413 183.5,413.5C 181.404,412.408 180.071,410.741 179.5,408.5C 180.173,406.149 180.84,403.816 181.5,401.5 Z M 199.5,409.5 C 200.267,410.172 200.934,411.005 201.5,412C 199.236,412.236 197.069,412.736 195,413.5C 194.383,412.551 194.549,411.718 195.5,411C 197.058,410.79 198.391,410.29 199.5,409.5 Z"/></g>
<g><path style="opacity:0.908" fill="#12487a" d="M 262.5,394.5 C 262.328,395.492 262.662,396.158 263.5,396.5C 263.5,398.5 263.5,400.5 263.5,402.5C 262.662,402.842 262.328,403.508 262.5,404.5C 260.833,405.5 259.5,406.833 258.5,408.5C 252.02,408.919 251.02,411.252 255.5,415.5C 255.328,416.492 255.662,417.158 256.5,417.5C 256.328,418.492 256.662,419.158 257.5,419.5C 257.5,420.167 257.833,420.5 258.5,420.5C 258.328,421.492 258.662,422.158 259.5,422.5C 259.5,423.167 259.833,423.5 260.5,423.5C 260.328,424.492 260.662,425.158 261.5,425.5C 261.5,426.167 261.833,426.5 262.5,426.5C 262.5,427.167 262.833,427.5 263.5,427.5C 263.5,428.167 263.833,428.5 264.5,428.5C 264.5,429.167 264.833,429.5 265.5,429.5C 265.5,430.167 265.833,430.5 266.5,430.5C 263.53,431.653 260.863,433.32 258.5,435.5C 257.417,435.539 256.417,435.873 255.5,436.5C 253.907,429.388 251.907,422.388 249.5,415.5C 247.599,414.769 245.599,414.769 243.5,415.5C 242.197,422.332 243.864,428.165 248.5,433C 242.5,433.667 236.5,433.667 230.5,433C 235.5,432.667 240.5,432.333 245.5,432C 240.343,430.717 235.01,430.05 229.5,430C 233.532,426.302 234.532,421.802 232.5,416.5C 231.391,417.59 230.391,417.59 229.5,416.5C 230.833,415.833 232.167,415.167 233.5,414.5C 232.113,414.193 230.446,414.193 228.5,414.5C 228.384,411.09 230.05,409.756 233.5,410.5C 233.666,405.156 233.499,399.823 233,394.5C 232.075,393.953 231.242,393.287 230.5,392.5C 233.202,390.653 236.202,389.487 239.5,389C 244.167,388.333 248.833,388.333 253.5,389C 257.181,389.872 260.181,391.706 262.5,394.5 Z M 243.5,390.5 C 245.989,390.298 248.323,390.798 250.5,392C 247.518,392.498 244.518,392.665 241.5,392.5C 241.666,398.176 241.499,403.843 241,409.5C 240.501,403.509 240.334,397.509 240.5,391.5C 241.791,391.737 242.791,391.404 243.5,390.5 Z M 243.5,393.5 C 248.908,393.059 252.908,395.059 255.5,399.5C 253.725,405.103 249.891,408.437 244,409.5C 243.501,404.177 243.334,398.844 243.5,393.5 Z M 246.5,411.5 C 247.289,411.783 247.956,412.283 248.5,413C 246.187,413.662 243.854,414.162 241.5,414.5C 241.666,418.514 241.499,422.514 241,426.5C 240.501,421.845 240.334,417.179 240.5,412.5C 242.735,412.795 244.735,412.461 246.5,411.5 Z"/></g>
<g><path style="opacity:0.927" fill="#13487a" d="M 305.5,422.5 C 305.328,423.492 305.662,424.158 306.5,424.5C 306.427,426.027 307.094,427.027 308.5,427.5C 308.5,428.167 308.833,428.5 309.5,428.5C 309.5,429.167 309.833,429.5 310.5,429.5C 298.34,430.66 286.007,430.827 273.5,430C 274.579,429.044 275.745,428.211 277,427.5C 277.499,422.845 277.666,418.179 277.5,413.5C 276.07,413.421 274.736,413.754 273.5,414.5C 272.702,414.043 272.369,413.376 272.5,412.5C 271.701,408.929 273.368,406.929 277.5,406.5C 277.666,401.821 277.499,397.155 277,392.5C 275.833,391.333 274.667,390.167 273.5,389C 285.167,388.333 296.833,388.333 308.5,389C 307.549,389.718 307.383,390.551 308,391.5C 308.718,390.549 309.551,390.383 310.5,391C 308.371,394.092 306.371,397.258 304.5,400.5C 300.161,395.941 294.828,393.941 288.5,394.5C 288.5,398.5 288.5,402.5 288.5,406.5C 292.497,407.332 295.164,405.832 296.5,402C 297.793,401.51 299.127,401.343 300.5,401.5C 300.827,406.544 300.494,411.544 299.5,416.5C 297.697,415.863 296.364,414.697 295.5,413C 293.19,412.503 290.857,412.337 288.5,412.5C 288.5,417.833 288.5,423.167 288.5,428.5C 295.917,429.213 301.083,426.213 304,419.5C 304.232,420.737 304.732,421.737 305.5,422.5 Z M 297.5,393.5 C 293.833,393.5 290.167,393.5 286.5,393.5C 286.666,397.846 286.499,402.179 286,406.5C 285.501,401.511 285.334,396.511 285.5,391.5C 289.684,391.851 293.684,392.518 297.5,393.5 Z M 272.5,412.5 C 273.622,411.053 275.122,410.053 277,409.5C 276.489,411.461 274.989,412.461 272.5,412.5 Z M 285.5,409.5 C 288.722,409.108 291.722,409.608 294.5,411C 291.854,411.497 289.187,411.664 286.5,411.5C 286.666,417.176 286.499,422.843 286,428.5C 285.5,422.175 285.334,415.842 285.5,409.5 Z"/></g>
<g><path style="opacity:0.926" fill="#12487a" d="M 310.5,429.5 C 309.833,429.5 309.5,429.167 309.5,428.5C 308.833,428.5 308.5,428.167 308.5,427.5C 308.573,425.973 307.906,424.973 306.5,424.5C 306.672,423.508 306.338,422.842 305.5,422.5C 305.897,421.475 306.563,421.308 307.5,422C 308.958,424.46 310.791,426.627 313,428.5C 315.091,425.318 316.925,421.985 318.5,418.5C 319.806,419.912 320.64,421.579 321,423.5C 321.333,422.167 321.667,420.833 322,419.5C 323.71,423.219 326.21,426.386 329.5,429C 336.564,430.248 340.397,427.414 341,420.5C 339.421,418.959 337.587,417.792 335.5,417C 329.978,415.937 324.644,414.27 319.5,412C 317.109,410.691 317.109,409.691 319.5,409C 315.207,404.527 314.374,399.361 317,393.5C 318.731,391.383 320.898,389.883 323.5,389C 329.634,388.1 335.634,388.6 341.5,390.5C 342.748,389.96 343.915,389.293 345,388.5C 345.317,390.301 345.984,390.634 347,389.5C 346.385,393.748 344.885,397.748 342.5,401.5C 340.003,400.871 338.003,399.038 336.5,396C 333.332,393.367 329.998,393.033 326.5,395C 324.876,398.206 325.542,400.872 328.5,403C 327.833,403.333 327.167,403.667 326.5,404C 331.167,405.333 335.833,406.667 340.5,408C 342.286,408.785 343.786,409.951 345,411.5C 345.414,411.043 345.914,410.709 346.5,410.5C 351.904,417.21 351.571,423.71 345.5,430C 336.788,434.15 327.788,434.65 318.5,431.5C 316.5,432 314.5,432.5 312.5,433C 300.167,433.667 287.833,433.667 275.5,433C 287.495,432.5 299.495,432.333 311.5,432.5C 311.737,431.209 311.404,430.209 310.5,429.5 Z M 316.5,428.5 C 318.564,428.687 320.564,429.187 322.5,430C 319.833,430.667 317.167,430.667 314.5,430C 315.416,429.722 316.082,429.222 316.5,428.5 Z"/></g>
<g><path style="opacity:0.931" fill="#13497a" d="M 352.5,389.5 C 354.978,388.836 357.645,388.503 360.5,388.5C 363.955,388.421 367.288,388.921 370.5,390C 369.696,391.771 368.529,393.271 367,394.5C 366.333,405.5 366.333,416.5 367,427.5C 368.833,429.333 370.667,431.167 372.5,433C 366.167,433.667 359.833,433.667 353.5,433C 358.5,432.667 363.5,432.333 368.5,432C 363.343,430.717 358.01,430.05 352.5,430C 353.579,429.044 354.745,428.211 356,427.5C 356.667,415.833 356.667,404.167 356,392.5C 354.961,391.29 353.794,390.29 352.5,389.5 Z"/></g>
<g><path style="opacity:0.97" fill="#12487a" d="M 400.5,429.5 C 391.868,430.578 383.202,430.744 374.5,430C 375.931,429.535 377.097,428.701 378,427.5C 378.667,415.5 378.667,403.5 378,391.5C 377.167,390.667 376.333,389.833 375.5,389C 387.98,386.626 399.48,388.793 410,395.5C 418.055,425.235 406.889,437.735 376.5,433C 382.167,432.667 387.833,432.333 393.5,432C 396.191,431.844 398.524,431.011 400.5,429.5 Z M 386.5,391.5 C 396.078,392.596 396.412,393.263 387.5,393.5C 387.667,405.171 387.5,416.838 387,428.5C 386.5,416.171 386.333,403.838 386.5,391.5 Z M 388.5,394.5 C 399.078,393.959 403.411,398.959 401.5,409.5C 402.018,414.904 400.851,419.904 398,424.5C 395.297,426.902 392.13,428.235 388.5,428.5C 388.5,417.167 388.5,405.833 388.5,394.5 Z M 409.5,401.5 C 412.079,408.073 411.912,414.74 409,421.5C 408.623,422.942 407.79,423.942 406.5,424.5C 409.195,417.118 410.195,409.451 409.5,401.5 Z M 406.5,424.5 C 405.732,427.562 403.732,429.228 400.5,429.5C 402.46,427.844 404.46,426.177 406.5,424.5 Z"/></g>
<g><path style="opacity:0.927" fill="#13487a" d="M 448.5,422.5 C 448.328,423.492 448.662,424.158 449.5,424.5C 449.427,426.027 450.094,427.027 451.5,427.5C 451.5,428.167 451.833,428.5 452.5,428.5C 452.5,429.167 452.833,429.5 453.5,429.5C 441.34,430.66 429.007,430.827 416.5,430C 417.579,429.044 418.745,428.211 420,427.5C 420.499,422.845 420.666,418.179 420.5,413.5C 419.07,413.421 417.736,413.754 416.5,414.5C 415.702,414.043 415.369,413.376 415.5,412.5C 414.701,408.929 416.368,406.929 420.5,406.5C 420.666,401.821 420.499,397.155 420,392.5C 418.833,391.333 417.667,390.167 416.5,389C 428.167,388.333 439.833,388.333 451.5,389C 450.549,389.718 450.383,390.551 451,391.5C 451.718,390.549 452.551,390.383 453.5,391C 451.371,394.092 449.371,397.258 447.5,400.5C 443.161,395.941 437.828,393.941 431.5,394.5C 431.5,398.5 431.5,402.5 431.5,406.5C 435.497,407.332 438.164,405.832 439.5,402C 440.793,401.51 442.127,401.343 443.5,401.5C 443.827,406.544 443.494,411.544 442.5,416.5C 440.697,415.863 439.364,414.697 438.5,413C 436.19,412.503 433.857,412.337 431.5,412.5C 431.5,417.833 431.5,423.167 431.5,428.5C 438.917,429.213 444.083,426.213 447,419.5C 447.232,420.737 447.732,421.737 448.5,422.5 Z M 440.5,393.5 C 436.833,393.5 433.167,393.5 429.5,393.5C 429.666,397.846 429.499,402.179 429,406.5C 428.501,401.511 428.334,396.511 428.5,391.5C 432.817,391.083 436.817,391.75 440.5,393.5 Z M 415.5,412.5 C 416.622,411.053 418.122,410.053 420,409.5C 419.489,411.461 417.989,412.461 415.5,412.5 Z M 428.5,409.5 C 431.722,409.108 434.722,409.608 437.5,411C 434.854,411.497 432.187,411.664 429.5,411.5C 429.666,417.176 429.499,422.843 429,428.5C 428.5,422.175 428.334,415.842 428.5,409.5 Z"/></g>
<g><path style="opacity:0.958" fill="#12487a" d="M 453.5,429.5 C 452.833,429.5 452.5,429.167 452.5,428.5C 451.833,428.5 451.5,428.167 451.5,427.5C 451.573,425.973 450.906,424.973 449.5,424.5C 449.672,423.508 449.338,422.842 448.5,422.5C 448.897,421.475 449.563,421.308 450.5,422C 452.317,424.816 454.483,427.316 457,429.5C 458.987,428.846 460.32,427.513 461,425.5C 461.667,414.167 461.667,402.833 461,391.5C 460.097,390.299 458.931,389.465 457.5,389C 464.143,388.619 470.643,388.452 477,388.5C 476.973,390.417 476.139,392.084 474.5,393.5C 478,400.5 481.5,407.5 485,414.5C 485.896,406.754 485.563,399.087 484,391.5C 482.745,390.789 481.579,389.956 480.5,389C 485.5,388.333 490.5,388.333 495.5,389C 494.328,389.419 493.328,390.085 492.5,391C 493.951,390.737 495.284,390.904 496.5,391.5C 494.041,392.791 492.541,394.791 492,397.5C 491.5,409.495 491.333,421.495 491.5,433.5C 488.813,433.664 486.146,433.497 483.5,433C 485.81,432.503 488.143,432.337 490.5,432.5C 490.667,419.829 490.5,407.162 490,394.5C 489.5,406.495 489.333,418.495 489.5,430.5C 486.881,430.768 484.381,430.435 482,429.5C 477.667,421.167 473.333,412.833 469,404.5C 468.333,411.5 468.333,418.5 469,425.5C 470.643,427.977 472.476,430.31 474.5,432.5C 455.842,433.666 437.176,433.833 418.5,433C 430.167,432.667 441.833,432.333 453.5,432C 454.774,431.023 454.774,430.189 453.5,429.5 Z M 457.5,430.5 C 462.361,430.063 467.028,430.563 471.5,432C 469.167,432.167 466.833,432.333 464.5,432.5C 461.731,432.471 459.397,431.805 457.5,430.5 Z"/></g>
<g><path style="opacity:0.733" fill="#12497a" d="M 258.5,435.5 C 261.961,434.269 265.294,432.769 268.5,431C 267.906,430.536 267.239,430.369 266.5,430.5C 265.833,430.5 265.5,430.167 265.5,429.5C 264.833,429.5 264.5,429.167 264.5,428.5C 263.833,428.5 263.5,428.167 263.5,427.5C 262.833,427.5 262.5,427.167 262.5,426.5C 261.833,426.5 261.5,426.167 261.5,425.5C 261.672,424.508 261.338,423.842 260.5,423.5C 259.833,423.5 259.5,423.167 259.5,422.5C 259.672,421.508 259.338,420.842 258.5,420.5C 257.833,420.5 257.5,420.167 257.5,419.5C 257.672,418.508 257.338,417.842 256.5,417.5C 256.672,416.508 256.338,415.842 255.5,415.5C 255.579,414.07 255.246,412.736 254.5,411.5C 256.184,410.85 257.517,409.85 258.5,408.5C 260.833,408.167 262.167,406.833 262.5,404.5C 263.338,404.158 263.672,403.492 263.5,402.5C 264.833,400.5 264.833,398.5 263.5,396.5C 263.672,395.508 263.338,394.842 262.5,394.5C 262.393,392.621 262.893,392.288 264,393.5C 266.729,397.333 267.062,401.333 265,405.5C 262.603,408.4 259.77,410.733 256.5,412.5C 259.808,420.307 264.808,426.807 271.5,432C 266.502,434.344 261.502,436.344 256.5,438C 257.381,437.292 258.047,436.458 258.5,435.5 Z"/></g>
</svg>
